PathFileType	4	(X/Y/Z)	C:/Users/opensim2020/Desktop/walking_exp_matlab/subject01_walking10_straight_04.trc																																																																																																																															
DataRate	CameraRate	NumFrames	NumMarkers	Units	OrigDataRate	OrigDataStartFrame	OrigNumFrames																																																																																																																											
100	100	5	43	mm	100	3959	274																																																																																																																											
Frame#	Time	LFHD			RFHD			LBHD			RBHD			C7			T10			CLAV			STRN			RBAK			LSHO			LUPA			LELB			LFRM			LWRA			LWRB			LFIN			RSHO			RUPA			RELB			RFRM			RWRA			RWRB			RFIN			LASI			RASI			LPSI			RPSI			LTHI			LKNE			LTIB			LANK			LHEE			LTOE			RTHI			RKNE			RTIB			RANK			RHEE			RTOE			*39			*40			*41			*42		
		X1	Y1	Z1	X2	Y2	Z2	X3	Y3	Z3	X4	Y4	Z4	X5	Y5	Z5	X6	Y6	Z6	X7	Y7	Z7	X8	Y8	Z8	X9	Y9	Z9	X10	Y10	Z10	X11	Y11	Z11	X12	Y12	Z12	X13	Y13	Z13	X14	Y14	Z14	X15	Y15	Z15	X16	Y16	Z16	X17	Y17	Z17	X18	Y18	Z18	X19	Y19	Z19	X20	Y20	Z20	X21	Y21	Z21	X22	Y22	Z22	X23	Y23	Z23	X24	Y24	Z24	X25	Y25	Z25	X26	Y26	Z26	X27	Y27	Z27	X28	Y28	Z28	X29	Y29	Z29	X30	Y30	Z30	X31	Y31	Z31	X32	Y32	Z32	X33	Y33	Z33	X34	Y34	Z34	X35	Y35	Z35	X36	Y36	Z36	X37	Y37	Z37	X38	Y38	Z38	X39	Y39	Z39	X40	Y40	Z40	X41	Y41	Z41	X42	Y42	Z42	X43	Y43	Z43
																																																																																																																																		
138	1.37	-116.64855	1677.3999	965.76678	-76.01961	1687.34229	1072.74951	-229.3011	1640.65186	1005.27405	-189.93369	1651.14246	1118.96448	-257.46948	1434.71191	1048.45386	-285.97107	1145.75708	1066.07544	-110.71393	1376.56787	1047.07996	-64.32388	1221.29443	1050.27051	-303.52707	1245.29382	1135.03381	-175.78033	1397.41357	886.29089	-188.65739	1208.56299	807.81396	-186.56168	1057.58301	809.39563	-135.02798	956.24786	784.36029	-42.78143	851.86633	802.4809	-95.98188	840.37897	777.59869	-39.86731	776.99164	768.72974	-170.87714	1408.37146	1199.38831	-227.91609	1211.08337	1306.21655	-227.23978	1087.36108	1313.41992	-202.95604	971.75494	1350.52905	-124.09879	852.11353	1339.91125	-168.71272	856.58405	1378.05273	-134.9975	775.73462	1379.22998	-113.40914	938.42133	964.09369	-119.11921	939.95087	1180.93103	-300.41479	952.61115	1013.90405	-301.17798	952.8241	1159.56372	-133.67758	606.89691	915.75012	-139.36371	472.04688	936.08142	-192.16075	287.46921	936.78601	-208.00063	71.34843	1000.58453	-246.71304	42.28538	1058.18408	-59.63201	36.28722	986.98181	-114.09518	610.70117	1253.27136	-85.27081	455.88562	1238.13965	-218.058	340.45557	1236.30261	-344.61603	176.94771	1186.6947	-399.33615	166.9059	1129.29419	-255.03624	65.58894	1194.79321	-91.29977	1720.48059	1051.04309	-1973.11633	1023.46252	3101.94995	-2012.49548	1022.021	3140.7207	NaN	NaN	NaN
139	1.38	-109.42741	1677.60437	964.85016	-68.80281	1687.43616	1071.99207	-222.52841	1641.11096	1003.82806	-182.85287	1651.50867	1118.08569	-250.68733	1435.06116	1047.60632	-279.78922	1146.28174	1064.96875	-103.94222	1376.91394	1046.0498	-57.86434	1221.53796	1049.2345	-297.10031	1246.00256	1134.0863	-169.1207	1398.21777	885.3786	-180.87396	1209.52319	806.42474	-177.09579	1058.64905	807.67224	-124.09369	957.99115	782.40405	-30.23892	855.14661	800.05078	-83.4813	842.7887	775.5484	-26.30174	780.30426	766.15601	-164.03859	1408.66467	1198.29285	-221.87772	1211.5614	1304.89795	-221.7787	1087.79895	1312.13574	-197.81004	972.07117	1349.22327	-119.10589	852.36176	1338.62195	-163.9523	856.82861	1376.41821	-130.16888	776.09113	1377.8772	-107.78931	938.61914	963.10175	-113.08723	940.7536	1179.58325	-294.70636	952.87781	1013.41455	-295.02176	953.31549	1159.14404	-130.50299	606.66864	915.15668	-137.37498	471.88629	935.51483	-190.72113	287.50198	936.46497	-208.06413	71.35155	1000.51288	-246.68486	42.50687	1058.12	-59.58107	36.22068	986.9057	-104.23741	612.28949	1252.18103	-73.32188	457.84775	1236.05188	-202.32378	337.63742	1234.7196	-324.73831	171.05569	1185.18372	-379.31805	159.1153	1127.92078	-230.70811	63.49889	1193.17688	-84.00114	1720.65906	1050.24402	-1973.17285	1023.54108	3101.8728	-2012.46509	1021.98297	3140.67114	NaN	NaN	NaN
140	1.39	-102.31944	1677.88806	964.05554	-61.60701	1687.50684	1071.09961	-215.6098	1641.54138	1003.04279	-175.73764	1651.81213	1117.23254	-243.85776	1435.4502	1046.74194	-273.69919	1146.77466	1063.83545	-97.20476	1377.22095	1045.11951	-51.41968	1221.74927	1048.23962	-290.60876	1246.68518	1133.23987	-162.48672	1398.90198	884.47797	-173.2384	1210.48474	805.06439	-167.82083	1059.5304	805.92499	-113.47292	959.7066	780.51611	-17.47644	858.36768	797.72217	-71.03286	845.09888	773.66193	-12.89929	783.86121	763.4809	-157.04872	1408.90759	1197.4137	-215.62854	1212.06335	1303.9364	-216.16225	1088.26331	1311.00916	-192.27538	972.26581	1347.76233	-113.90255	852.60297	1337.23401	-158.62996	857.00256	1375.15393	-125.04797	776.15424	1376.4071	-102.22173	938.78271	962.10345	-107.0732	941.48962	1178.4729	-288.9765	953.08392	1012.90082	-288.92041	953.68591	1158.68982	-127.3848	606.3786	914.63373	-135.25916	471.60571	935.00897	-189.3804	287.47467	936.09192	-207.93068	71.40293	1000.39923	-246.34895	42.52125	1058.41614	-59.55385	36.08876	986.81244	-94.87594	613.64905	1250.82483	-61.58182	459.18497	1233.57214	-186.41943	334.45944	1232.95569	-304.33212	164.72795	1183.68933	-358.7652	150.69447	1126.552	-205.90762	61.29551	1191.41467	-76.79174	1720.77747	1049.41797	-1973.03101	1023.68237	3101.95703	-2012.50549	1022.01062	3140.7019	NaN	NaN	NaN
141	1.4	-95.07343	1678.01025	963.39606	-54.5029	1687.58569	1070.47632	-208.66499	1641.84387	1002.21893	-168.69389	1652.02271	1116.55981	-237.01677	1435.76733	1045.93457	-267.60638	1147.27783	1062.7738	-90.37829	1377.41187	1044.27246	-44.96877	1221.82837	1047.26831	-284.14493	1247.30042	1132.39075	-155.76408	1399.53394	883.63934	-165.71448	1211.34302	803.66974	-158.76018	1060.36108	804.36169	-102.9098	961.30786	778.70764	-5.52639	861.56104	795.32983	-58.64207	847.39734	771.52832	0.32845	787.03552	761.22638	-150.13974	1409.17554	1196.55078	-209.2458	1212.57886	1303.22522	-210.46445	1088.68494	1309.97766	-186.99075	972.60718	1346.72681	-108.6474	852.78156	1336.02478	-153.36392	857.15833	1373.80127	-119.90238	776.28949	1374.8667	-96.62728	938.98138	961.26056	-101.11778	942.08868	1177.39136	-283.20065	953.17999	1012.43573	-282.88782	953.97333	1158.27222	-124.30982	606.15753	914.06281	-133.31651	471.4957	934.45715	-188.4203	287.49042	935.70129	-207.84274	71.56814	1000.1781	-246.26814	42.72422	1058.40076	-59.48137	36.02979	986.71832	-85.6786	614.88019	1249.34888	-50.04923	460.59543	1231.4502	-170.57841	331.31747	1231.37769	-283.30414	157.97792	1182.08313	-337.66016	142.29126	1125.40295	-180.76627	59.02333	1189.74304	-69.57829	1720.90723	1048.7467	-1973.04736	1023.58832	3102.00952	-2012.52197	1021.92969	3140.67065	NaN	NaN	NaN
142	1.41	-87.99281	1678.09607	962.82892	-47.37502	1687.55237	1069.896	-201.6082	1642.11353	1001.62457	-161.61299	1652.09167	1115.92639	-230.13719	1436.06091	1045.14526	-261.50067	1147.67993	1061.78699	-83.56631	1377.59399	1043.34705	-38.55517	1221.82654	1046.36243	-277.61948	1247.86035	1131.58704	-148.90215	1400.04944	882.86273	-158.22987	1212.08752	802.37323	-149.85924	1061.02734	802.80707	-92.51257	962.83685	776.97748	6.8002	864.73633	793.15222	-46.51957	849.63373	769.75226	13.63399	790.20789	759.04407	-143.19164	1409.27661	1195.59106	-202.68042	1212.95032	1302.45288	-204.62898	1089.06177	1309.1084	-181.40733	972.95129	1345.78101	-103.25155	852.9278	1334.73303	-148.05003	857.3468	1372.65308	-114.63385	776.30353	1373.43018	-90.97823	939.01508	960.54681	-95.08527	942.54352	1176.40857	-277.44421	953.25171	1011.9765	-276.81754	954.14844	1157.89514	-121.2656	605.99384	913.59967	-131.15105	471.23328	933.90039	-187.19183	287.69461	935.5036	-207.6693	71.56094	1000.23413	-246.21791	42.97633	1058.33118	-59.40977	35.98503	986.65442	-76.55752	616.04987	1247.80884	-38.87797	461.80081	1229.28516	-154.89783	328.41458	1229.86646	-262.1803	151.47408	1180.89124	-315.8812	133.32178	1124.21936	-155.33475	56.9792	1188.03699	-62.31797	1721.0354	1048.19434	-1973.12219	1023.45935	3101.90601	-2012.48279	1022.13611	3140.74829	NaN	NaN	NaN
